M48
; DRILL file {KiCad 5.1.9} date Mon Feb  1 23:17:20 2021
; FORMAT={-:-/ absolute / inch / decimal}
; #@! TF.CreationDate,2021-02-01T23:17:20-05:00
; #@! TF.GenerationSoftware,Kicad,Pcbnew,5.1.9
FMAT,2
INCH
T1C0.0157
T2C0.0276
T3C0.0400
T4C0.0579
T5C0.0900
T6C0.0689
T7C0.1570
%
G90
G05
T1
X3.8839Y-6.8944
X3.9494Y-6.6654
X3.9545Y-7.1656
X3.9901Y-6.416
X3.9954Y-7.33
X3.9982Y-6.5232
X4.0022Y-6.8138
X4.0197Y-6.8855
X4.1043Y-6.5752
X4.189Y-6.8916
X4.1997Y-7.117
X4.2132Y-5.2011
X4.2181Y-5.4669
X4.2248Y-6.4559
X4.2619Y-7.1716
X4.2948Y-5.7727
X4.3938Y-6.4351
X4.463Y-6.4455
X4.5572Y-6.1693
X4.5746Y-6.9116
X4.5886Y-6.2265
X4.6177Y-6.6351
X4.6206Y-6.1764
T3
X4.191Y-4.5306
X4.191Y-5.1006
X4.291Y-5.1006
X4.391Y-4.5306
X4.391Y-5.1006
T4
X1.0708Y-4.6865
X1.0715Y-6.9371
X1.072Y-6.1881
X1.0729Y-5.4385
X1.3208Y-4.5865
X1.3215Y-6.8371
X1.322Y-6.0881
X1.3229Y-5.3385
X1.8215Y-6.9371
X1.822Y-4.6881
X1.822Y-5.4391
X1.8235Y-6.1886
X2.0715Y-6.8371
X2.072Y-4.5881
X2.072Y-5.3391
X2.0735Y-6.0886
X2.5715Y-4.6896
X2.5725Y-6.1876
X2.573Y-5.4376
X2.573Y-6.9386
X2.8215Y-4.5896
X2.8225Y-6.0876
X2.823Y-5.3376
X2.823Y-6.8386
X3.322Y-5.4386
X3.322Y-6.1876
X3.322Y-6.9391
X3.323Y-4.6881
X3.572Y-5.3386
X3.572Y-6.0876
X3.572Y-6.8391
X3.573Y-4.5881
T5
X4.031Y-4.8056
X4.551Y-4.8056
T6
X1.0208Y-4.7865
X1.0215Y-7.0371
X1.022Y-6.2881
X1.0229Y-5.5385
X1.4208Y-4.7865
X1.4215Y-7.0371
X1.422Y-6.2881
X1.4229Y-5.5385
X1.7715Y-7.0371
X1.772Y-4.7881
X1.772Y-5.5391
X1.7735Y-6.2886
X2.1715Y-7.0371
X2.172Y-4.7881
X2.172Y-5.5391
X2.1735Y-6.2886
X2.5215Y-4.7896
X2.5225Y-6.2876
X2.523Y-5.5376
X2.523Y-7.0386
X2.9215Y-4.7896
X2.9225Y-6.2876
X2.923Y-5.5376
X2.923Y-7.0386
X3.272Y-5.5386
X3.272Y-6.2876
X3.272Y-7.0391
X3.273Y-4.7881
X3.672Y-5.5386
X3.672Y-6.2876
X3.672Y-7.0391
X3.673Y-4.7881
T7
X1.2208Y-4.7865
X1.2215Y-7.0371
X1.222Y-6.2881
X1.2229Y-5.5385
X1.9715Y-7.0371
X1.972Y-4.7881
X1.972Y-5.5391
X1.9735Y-6.2886
X2.7215Y-4.7896
X2.7225Y-6.2876
X2.723Y-5.5376
X2.723Y-7.0386
X3.472Y-5.5386
X3.472Y-6.2876
X3.472Y-7.0391
X3.473Y-4.7881
T2
G00X4.4699Y-5.7777
M15
G01X4.4226Y-5.7777
M16
G05
G00X4.4699Y-6.0651
M15
G01X4.4226Y-6.0651
M16
G05
G00X4.647Y-5.7777
M15
G01X4.5998Y-5.7777
M16
G05
G00X4.647Y-6.0651
M15
G01X4.5998Y-6.0651
M16
G05
T0
M30
